HIERARCHY
ROOT Hips
{
	OFFSET 0.000000 0.000000 0.000000 
	CHANNELS 6 Xposition Yposition Zposition Zrotation Yrotation Xrotation
	JOINT LeftUpLeg
	{
		OFFSET 1.363060 -1.794630 0.839290 
		CHANNELS 3 Zrotation Yrotation Xrotation
		JOINT LeftLeg
		{
			OFFSET 2.448110 -6.726130 0.000000 
			CHANNELS 3 Zrotation Yrotation Xrotation
			JOINT LeftFoot
			{
				OFFSET 2.562200 -7.039590 0.000000 
				CHANNELS 3 Zrotation Yrotation Xrotation
				JOINT LeftToeBase
				{
					OFFSET 0.157640 -0.433110 2.322550 
					CHANNELS 3 Zrotation Yrotation Xrotation
					End Site
					{
						OFFSET 0.000000 0.000000 0.000000 
					}
				}
			}
		}
	}
	JOINT RightUpLeg
	{
		OFFSET -1.305520 -1.794630 0.839290 
		CHANNELS 3 Zrotation Yrotation Xrotation
		JOINT RightLeg
		{
			OFFSET -2.542530 -6.985550 0.000000 
			CHANNELS 3 Zrotation Yrotation Xrotation
			JOINT RightFoot
			{
				OFFSET -2.568260 -7.056230 0.000000 
				CHANNELS 3 Zrotation Yrotation Xrotation
				JOINT RightToeBase
				{
					OFFSET -0.164730 -0.452590 2.363150 
					CHANNELS 3 Zrotation Yrotation Xrotation
					End Site
					{
						OFFSET 0.000000 0.000000 0.000000 
					}
				}
			}
		}
	}
	JOINT Spine
	{
		OFFSET 0.028270 2.035590 -0.193380 
		CHANNELS 3 Zrotation Yrotation Xrotation
		JOINT Spine1
		{
			OFFSET 0.056720 2.048850 -0.042750 
			CHANNELS 3 Zrotation Yrotation Xrotation
			JOINT Neck1
			{
				OFFSET -0.054170 1.746240 0.172020 
				CHANNELS 3 Zrotation Yrotation Xrotation
				JOINT Head
				{
					OFFSET 0.104070 1.761360 -0.123970 
					CHANNELS 3 Zrotation Yrotation Xrotation
					End Site
					{
						OFFSET 0.000000 0.000000 0.000000 
					}
				}
			}
			JOINT LeftArm
			{
				OFFSET 3.362410 1.200890 -0.311210 
				CHANNELS 3 Zrotation Yrotation Xrotation
				JOINT LeftForeArm
				{
					OFFSET 4.983000 -0.000000 -0.000000 
					CHANNELS 3 Zrotation Yrotation Xrotation
					JOINT LeftHand
					{
						OFFSET 3.483560 -0.000000 -0.000000 
						CHANNELS 3 Zrotation Yrotation Xrotation
						JOINT LeftHandIndex1
						{
							OFFSET 0.715260 -0.000000 -0.000000 
							CHANNELS 3 Zrotation Yrotation Xrotation
							End Site
							{
								OFFSET 0.000000 0.000000 0.000000 
							}
						}
					}
				}
			}
			JOINT RightArm
			{
				OFFSET -3.136600 1.374050 -0.404650 
				CHANNELS 3 Zrotation Yrotation Xrotation
				JOINT RightForeArm
				{
					OFFSET -5.241900 -0.000000 -0.000000 
					CHANNELS 3 Zrotation Yrotation Xrotation
					JOINT RightHand
					{
						OFFSET -3.444170 -0.000000 -0.000000 
						CHANNELS 3 Zrotation Yrotation Xrotation
						JOINT RightHandIndex1
						{
							OFFSET -0.622530 -0.000000 -0.000000 
							CHANNELS 3 Zrotation Yrotation Xrotation
							End Site
							{
								OFFSET 0.000000 0.000000 0.000000 
							}
						}
					}
				}
			}
		}
	}
}
MOTION
Frames: 16
Frame Time: 0.041667
-0.312835 17.628778 17.851208 -174.894856 -12.581218 -161.972769 -38.679914 -22.682885 0.102832 4.084910 8.705061 30.634343 -0.321265 -21.304804 -43.856777 1.729300 -8.277900 -23.561400 12.960120 32.582196 -49.703024 -2.207779 -9.135693 16.859532 -5.238305 -14.111149 -39.301554 -1.237200 7.053500 -19.873900 2.994572 -3.814731 -5.853221 1.801013 -3.072009 19.048339 17.452096 -20.546126 37.636406 1.547200 -8.663200 6.649400 -97.897862 3.533092 24.895477 21.286467 -23.468139 -4.460891 -0.396912 0.216597 -2.407178 -7.125000 0.000000 0.000000 103.633281 -14.633896 -0.205767 -17.862916 26.813582 -3.984785 0.095103 -0.331594 -0.516647 7.125000 0.000000 0.000000 
-0.276121 17.604847 17.760702 -174.738389 -12.841363 -161.996090 -38.359963 -22.514800 0.434491 4.117055 8.674415 30.657525 -0.209662 -21.154648 -44.034260 1.979500 -8.823300 -25.244000 13.010523 32.524019 -49.624474 -2.202737 -9.068290 16.662157 -5.246355 -14.250680 -39.079617 -1.186500 6.912500 -19.456500 2.966794 -3.915068 -5.853506 1.587271 -3.097490 19.024368 17.875351 -20.617817 39.014174 1.688500 -8.641800 7.108300 -97.589547 3.706503 25.355898 21.652740 -23.993957 -4.652943 -0.400648 0.158965 -2.568921 -7.125000 0.000000 0.000000 103.776934 -14.894286 0.028386 -17.908886 26.872303 -4.003173 0.094502 -0.331385 -0.670315 7.125000 0.000000 0.000000 
-0.233066 17.578564 17.665491 -174.431950 -13.088052 -162.245546 -37.865054 -22.050581 0.984971 4.167262 8.590144 30.582230 0.022261 -20.785964 -44.340872 2.486300 -9.813000 -28.373300 13.559935 32.451089 -49.338454 -2.210803 -9.122488 16.812377 -5.234065 -14.385442 -38.642655 -1.413500 7.519500 -21.263700 2.899148 -3.938884 -5.846841 1.528875 -3.084673 19.197207 17.609395 -20.995618 38.026184 1.541200 -8.890800 6.710300 -97.281218 3.666945 25.401746 21.665089 -23.981346 -4.647032 -0.415950 0.196583 -2.187365 -7.125000 0.000000 0.000000 103.979384 -15.193116 0.257126 -18.047899 27.081920 -4.069341 0.084905 -0.315118 -1.064848 7.125000 0.000000 0.000000 
-0.181319 17.552077 17.567111 -173.805701 -13.465131 -162.835682 -36.996734 -21.454905 1.767063 4.231466 8.443494 30.527287 0.070863 -20.924034 -44.515058 2.625000 -10.061700 -29.176600 14.645995 32.692419 -48.449161 -2.207008 -9.112953 16.799281 -5.260679 -14.859209 -38.273882 -1.611600 8.005300 -22.730300 2.994339 -3.982385 -5.734498 1.484005 -3.068657 19.276030 17.468398 -21.190502 37.378719 1.463600 -9.023600 6.449900 -96.937348 3.648977 25.716547 21.785995 -24.128488 -4.705007 -0.426577 0.209882 -2.137496 -7.125000 0.000000 0.000000 104.227015 -15.478749 0.183318 -18.185825 27.283934 -4.132186 0.091848 -0.323381 -1.309580 7.125000 0.000000 0.000000 
-0.132333 17.527840 17.471491 -173.451655 -13.846355 -163.203678 -36.431767 -21.241929 2.309368 4.274198 8.377146 30.682646 -0.063392 -21.473110 -44.536491 2.333600 -9.528900 -27.464200 15.316069 32.686165 -47.796224 -2.216785 -9.042465 16.615007 -5.274780 -15.065782 -38.071742 -1.681200 8.167800 -23.224900 3.060554 -4.074409 -5.736061 1.504747 -3.096642 19.243191 17.354315 -21.147274 36.934668 1.436800 -9.031000 6.270700 -96.690642 3.725734 25.918096 21.967424 -24.364200 -4.797610 -0.420785 0.211016 -2.218970 -7.125000 0.000000 0.000000 104.342042 -15.849931 0.218127 -18.327708 27.467452 -4.194271 0.101370 -0.333331 -1.364913 7.125000 0.000000 0.000000 
-0.090915 17.504932 17.380167 -173.597790 -14.067876 -163.138381 -36.390104 -21.256465 2.519449 4.286891 8.382660 30.853649 -0.205208 -21.892211 -44.452383 2.118400 -9.108400 -26.135100 15.210258 32.306022 -47.868358 -2.249112 -9.047387 16.648571 -5.245464 -14.800159 -37.843211 -1.807600 8.453200 -24.099400 3.019448 -4.155987 -5.737737 1.558692 -3.157721 19.253168 17.139319 -21.019022 37.446839 1.390200 -8.961400 6.425000 -96.546765 3.757791 25.942016 22.147930 -24.615049 -4.890489 -0.416400 0.211693 -2.104467 -7.125000 0.000000 0.000000 104.314488 -16.127467 0.476178 -18.440673 27.604887 -4.241044 0.103438 -0.334479 -1.674581 7.125000 0.000000 0.000000 
-0.048577 17.482024 17.290376 -173.693247 -14.215175 -163.124352 -36.247021 -21.027020 2.782266 4.308997 8.352840 30.911185 -0.317432 -22.144286 -44.290464 2.142100 -9.155900 -26.284300 15.102476 32.158143 -47.922365 -2.262885 -9.062173 16.714606 -5.226899 -14.668724 -37.616279 -1.918000 8.693100 -24.839800 2.979252 -4.186217 -5.623543 1.565218 -3.186116 19.340560 17.384403 -21.056122 37.939238 1.455000 -8.937500 6.630000 -96.391509 3.731245 25.904343 22.415379 -25.000479 -5.029983 -0.413733 0.203814 -2.091938 -7.125000 0.000000 0.000000 104.256783 -16.143297 0.755473 -18.382010 27.524549 -4.214470 0.101849 -0.335767 -2.073093 7.125000 0.000000 0.000000 
0.002045 17.460344 17.198540 -173.499781 -14.408727 -163.349508 -35.740809 -20.649922 3.180444 4.351877 8.302458 31.038457 -0.471715 -22.571989 -44.149977 2.060500 -8.991000 -25.767200 15.377972 32.389494 -47.547961 -2.250209 -9.026985 16.647067 -5.245170 -14.914980 -37.350921 -2.036900 8.942600 -25.615900 3.005284 -4.192590 -5.535095 1.635190 -3.188495 19.419480 17.725750 -21.283973 37.515111 1.543900 -9.054100 6.504100 -96.209164 3.722555 25.960282 22.727503 -25.431154 -5.194501 -0.406574 0.180774 -2.449932 -7.125000 0.000000 0.000000 104.223933 -16.235390 1.017912 -18.361862 27.497715 -4.211805 0.100059 -0.337749 -2.311777 7.125000 0.000000 0.000000 
0.050827 17.439993 17.104864 -173.283672 -14.654877 -163.505213 -35.238118 -20.437730 3.543238 4.386849 8.252977 31.167034 -0.671846 -23.107599 -43.982726 1.779100 -8.390100 -23.905200 15.806629 32.446053 -47.113194 -2.250961 -8.942820 16.426197 -5.247584 -14.991560 -37.143085 -2.093600 9.058400 -25.978200 3.019415 -4.181293 -5.530312 1.669883 -3.173614 19.420679 18.010234 -21.354040 37.167849 1.641100 -9.100500 6.377500 -95.970214 3.724675 26.243732 22.944973 -25.717792 -5.312532 -0.404559 0.166672 -2.770619 -7.125000 0.000000 0.000000 104.308854 -16.529678 1.234350 -18.522226 27.696750 -4.279111 0.094042 -0.319091 -2.616652 7.125000 0.000000 0.000000 
0.093267 17.416983 17.008835 -173.391663 -14.891655 -163.425953 -35.135181 -20.408283 3.803637 4.407060 8.227084 31.246054 -0.888468 -23.517803 -43.657683 1.572300 -7.911700 -22.446200 16.015609 32.004428 -46.963223 -2.292422 -8.862956 16.197420 -5.225938 -14.694548 -37.263246 -2.075500 9.021500 -25.862700 2.891508 -4.180648 -5.512702 1.567779 -3.171287 19.359709 18.176489 -21.220105 38.060285 1.701900 -8.989300 6.659100 -95.671529 3.771928 26.500961 23.097391 -25.921932 -5.396556 -0.405684 0.173020 -2.948839 -7.125000 0.000000 0.000000 104.459704 -16.798703 1.268036 -18.614074 27.809892 -4.314643 0.102738 -0.325663 -2.430759 7.125000 0.000000 0.000000 
0.139083 17.390291 16.910761 -173.627281 -15.063076 -163.294154 -35.126368 -20.365629 4.010274 4.424869 8.218663 31.363141 -1.149876 -23.999059 -43.263409 1.338600 -7.325700 -20.683900 15.871657 31.680000 -47.076788 -2.321558 -8.891664 16.286186 -5.220310 -14.550246 -37.386216 -2.250400 9.369300 -26.957500 2.778101 -4.215674 -5.462725 1.615391 -3.209357 19.477834 18.008653 -21.368608 38.006972 1.628200 -9.067600 6.647000 -95.533215 3.810931 26.538881 23.304507 -26.198295 -5.506986 -0.412472 0.171558 -3.109704 -7.125000 0.000000 0.000000 104.411421 -17.040483 1.680313 -18.716393 27.938046 -4.360372 0.109552 -0.335903 -2.755818 7.125000 0.000000 0.000000 
0.187967 17.364520 16.814119 -173.674087 -15.228989 -163.146884 -34.859609 -20.357138 4.110573 4.445547 8.236438 31.537490 -1.281563 -24.317630 -43.157105 1.235800 -7.049500 -19.862100 15.617792 31.741351 -47.292956 -2.319594 -8.975579 16.534705 -5.221333 -14.519109 -37.518611 -2.304000 9.472500 -27.285000 2.829492 -4.287543 -5.419253 1.683398 -3.257266 19.591232 17.905519 -21.364415 38.065668 1.596700 -9.062200 6.681600 -95.512292 3.841267 26.443599 23.536757 -26.515043 -5.633225 -0.418372 0.167410 -3.241839 -7.125000 0.000000 0.000000 104.195115 -17.221547 2.234967 -18.777877 27.994553 -4.385334 0.112874 -0.338000 -2.940465 7.125000 0.000000 0.000000 
0.236748 17.341305 16.719113 -173.542308 -15.449226 -163.076046 -34.384156 -20.310473 4.254088 4.468436 8.226204 31.646736 -1.346365 -24.542664 -43.173223 1.317500 -7.269900 -20.517500 15.696397 31.785335 -47.390646 -2.318773 -9.062909 16.777141 -5.215152 -14.475911 -37.649486 -2.188300 9.247800 -26.573500 2.868924 -4.319441 -5.390279 1.611229 -3.249030 19.616954 17.982980 -21.354583 37.935277 1.613800 -9.047600 6.651100 -95.415382 3.810305 26.438331 23.703186 -26.740414 -5.723684 -0.422171 0.169242 -3.344457 -7.125000 0.000000 0.000000 104.053056 -17.290000 2.632594 -18.697072 27.879072 -4.350224 0.107533 -0.331753 -3.030600 7.125000 0.000000 0.000000 
0.284404 17.316250 16.624005 -173.604535 -15.638658 -162.998452 -34.107378 -20.167575 4.428792 4.484178 8.189172 31.673221 -1.535634 -24.918773 -42.924030 1.312300 -7.256100 -20.476300 15.736821 31.546130 -47.554506 -2.338394 -9.172466 17.089196 -5.189681 -14.316097 -37.547260 -2.267200 9.401700 -27.060300 2.832842 -4.328225 -5.391157 1.604962 -3.236856 19.635469 18.102635 -21.412376 37.312259 1.663400 -9.103600 6.436500 -95.362186 3.787139 26.483623 23.870456 -26.959743 -5.815824 -0.428693 0.162887 -3.430482 -7.125000 0.000000 0.000000 103.914509 -17.378395 2.937891 -18.672112 27.821990 -4.337884 0.115251 -0.339700 -3.165800 7.125000 0.000000 0.000000 
0.333186 17.289047 16.522556 -173.908399 -15.862868 -162.814489 -34.082471 -20.043210 4.555417 4.495645 8.178510 31.697757 -1.589557 -25.005918 -42.814624 1.546500 -7.849600 -22.258100 15.506400 31.225625 -47.705460 -2.374500 -9.227726 17.282807 -5.142805 -13.924335 -37.384169 -2.308900 9.481800 -27.314300 2.725551 -4.359350 -5.401806 1.698789 -3.263514 19.725737 18.424044 -21.673664 36.425968 1.743500 -9.256700 6.165500 -95.349560 3.771900 26.496790 24.071071 -27.223567 -5.927610 -0.434559 0.148361 -3.583715 -7.125000 0.000000 0.000000 103.775879 -17.581450 3.376955 -18.795658 27.959340 -4.393779 0.118950 -0.338792 -3.266789 7.125000 0.000000 0.000000 
0.386569 17.262355 16.416301 -174.171503 -16.090311 -162.677761 -33.995344 -19.858188 4.806285 4.508057 8.131360 31.653899 -1.602606 -25.064355 -42.778717 1.879900 -8.611300 -24.586800 15.352308 31.027409 -47.750866 -2.414576 -9.294588 17.532134 -5.076086 -13.379358 -37.345553 -2.238600 9.346400 -26.885100 2.559912 -4.302725 -5.314368 1.738911 -3.249675 19.784395 18.787490 -22.218468 36.287289 1.742100 -9.488700 6.149400 -95.221333 3.659326 26.622818 24.220296 -27.425490 -6.011472 -0.441076 0.137427 -3.621094 -7.125000 0.000000 0.000000 103.806107 -17.807562 3.680912 -18.944308 28.159677 -4.461882 0.118222 -0.335467 -3.576532 7.125000 0.000000 0.000000 
